<svg width="512" height="512" viewBox="0 0 24 24" fill="none" xmlns="http://www.w3.org/2000/svg">
  <rect width="24" height="24" fill="#020617"/>
  <g transform="translate(0, 0)">
    <g transform="rotate(-35 8 8) translate(-2 -4)">
      <path d="M18 11h2a2 2 0 0 1 2 2v3a4 4 0 0 1-4 4H6a4 4 0 0 1-4-4v-3a2 2 0 0 1 2-2h2" stroke="#10b981" stroke-width="1.5" />
      <circle cx="7" cy="11" r="1.5" fill="#10b981" />
      <circle cx="17" cy="11" r="1.5" fill="#10b981" />
      <path d="M6 15h12" stroke="#10b981" stroke-width="1.5" />
    </g>
    <path d="M6 8V6a3 3 0 0 1 3-3h6a3 3 0 0 1 3 3v2" stroke="white" stroke-width="2" stroke-linecap="round" stroke-linejoin="round"/>
    <rect x="4" y="8" width="16" height="13" rx="3" stroke="white" stroke-width="2" stroke-linecap="round" stroke-linejoin="round"/>
    <path d="M4 12h16" stroke="white" stroke-width="2" stroke-linecap="round" stroke-linejoin="round"/>
    <path d="M9 12v4a3 3 0 0 0 6 0v-4" stroke="white" stroke-width="2" stroke-linecap="round" stroke-linejoin="round"/>
  </g>
</svg>
